<?xml version="1.0" encoding="UTF-8" standalone="no"?>
<!-- Created with Inkscape (http://www.inkscape.org/) -->
<svg
   xmlns:dc="http://purl.org/dc/elements/1.1/"
   xmlns:cc="http://creativecommons.org/ns#"
   xmlns:rdf="http://www.w3.org/1999/02/22-rdf-syntax-ns#"
   xmlns:svg="http://www.w3.org/2000/svg"
   xmlns="http://www.w3.org/2000/svg"
   xmlns:sodipodi="http://sodipodi.sourceforge.net/DTD/sodipodi-0.dtd"
   xmlns:inkscape="http://www.inkscape.org/namespaces/inkscape"
   width="744.09448819"
   height="1052.3622047"
   id="svg2"
   sodipodi:version="0.32"
   inkscape:version="0.46"
   sodipodi:docname="Vertical_Line.svg"
   inkscape:output_extension="org.inkscape.output.svg.inkscape">
  <defs
     id="defs4">
    <inkscape:perspective
       sodipodi:type="inkscape:persp3d"
       inkscape:vp_x="0 : 526.18109 : 1"
       inkscape:vp_y="0 : 1000 : 0"
       inkscape:vp_z="744.09448 : 526.18109 : 1"
       inkscape:persp3d-origin="372.04724 : 350.78739 : 1"
       id="perspective10" />
  </defs>
  <sodipodi:namedview
     id="base"
     pagecolor="#ffffff"
     bordercolor="#666666"
     borderopacity="1.0"
     gridtolerance="10000"
     guidetolerance="10"
     objecttolerance="10"
     inkscape:pageopacity="0.0"
     inkscape:pageshadow="2"
     inkscape:zoom="0.49497475"
     inkscape:cx="393.917"
     inkscape:cy="497.53954"
     inkscape:document-units="px"
     inkscape:current-layer="layer1"
     showgrid="false"
     inkscape:window-width="675"
     inkscape:window-height="722"
     inkscape:window-x="691"
     inkscape:window-y="107" />
  <metadata
     id="metadata7">
    <rdf:RDF>
      <cc:Work
         rdf:about="">
        <dc:format>image/svg+xml</dc:format>
        <dc:type
           rdf:resource="http://purl.org/dc/dcmitype/StillImage" />
      </cc:Work>
    </rdf:RDF>
  </metadata>
  <g
     inkscape:label="Layer 1"
     inkscape:groupmode="layer"
     id="layer1">
    <path
       style="font-size:1000px;font-style:normal;font-variant:normal;font-weight:normal;font-stretch:normal;fill:#000000;fill-opacity:1;stroke:none;stroke-width:1px;stroke-linecap:butt;stroke-linejoin:miter;stroke-opacity:1;font-family:OCRA;-inkscape-font-specification:OCRA"
       d="M 295,869.36218 L 295,730.36218 L 342,730.36218 L 390,730.36218 L 390,871.36218 C 389.99961,968.02893 388.33294,1019.3622 385,1025.3622 C 380.33295,1035.3622 373.33296,1042.6955 364,1047.3622 C 354.66631,1051.3622 345.66632,1053.0288 337,1052.3622 C 333.66633,1051.6955 329.99967,1050.6955 326,1049.3622 C 319.99968,1047.3622 314.33302,1043.6955 309,1038.3622 C 303.66636,1032.3622 299.9997,1026.6955 298,1021.3622 C 295.9997,1015.3622 294.99971,973.69559 295,896.36218 C 294.99971,879.02902 294.99971,870.02903 295,869.36218 M 334,313.36218 L 355,314.36218 C 356.99964,315.02959 359.99964,316.02959 364,317.36218 C 373.33296,322.02958 380.33295,329.36291 385,339.36218 C 388.33294,345.36289 389.99961,359.02954 390,380.36218 L 390,493.36218 L 390,634.36218 L 342,634.36218 L 295,634.36218 L 295,495.36218 C 294.99971,400.0295 295.9997,349.36289 298,343.36218 C 299.9997,338.02956 303.66636,332.69624 309,327.36218 C 316.33302,320.02958 324.66634,315.36292 334,313.36218"
       id="text8234" />
  </g>
</svg>
